<?xml version="1.0" encoding="utf-8"?>
<!-- Generator: Adobe Illustrator 24.0.3, SVG Export Plug-In . SVG Version: 6.00 Build 0)  -->
<svg version="1.1" id="Warstwa_1" xmlns="http://www.w3.org/2000/svg" xmlns:xlink="http://www.w3.org/1999/xlink" x="0px" y="0px"
	 viewBox="0 0 480 480" style="enable-background:new 0 0 480 480;" xml:space="preserve">
<style type="text/css">
	.st0{opacity:0.4;}
	.st1{fill:#FFFFFF;}
</style>
<g class="st0">
	<g>
		<g>
			<path class="st1" d="M180.6,221.6c0.4-0.9-16-9.1-21.1-11.7c-12.2-6.1-22.5-10.6-29.6-13.7c-11-4.7-18.4-7.9-29.1-11.5
				c-16.4-5.5-26.6-7.4-34.7-8.4c-8.9-1-13.1-0.6-15-0.4c-4.8,0.5-15.4,1.7-23.4,9.9c-1.8,1.9-9,9.2-8.7,19.9
				c0.3,11.2,8.6,18.4,12.4,21.6c4.1,3.6,8.8,6.1,17.9,9.1c16.2,5.3,29.6,6.7,36.2,7.3c22.6,2.2,33.9,3.3,45.1,3.4
				c62,0.8,132.9-10.2,162.6-14.8c4.7-0.7,31.3-4.8,45.7-7.3c1.7-0.3,8.7-1.5,18.3-3c4.5-0.7,7.6-1.2,9-1.5
				c6.8-1.1,53.5-8.6,64.2-7.4c0.3,0,2.9,0.3,2.9,0.3l0,0c0,0-4-0.8-6.5-1.2c-2.6-0.4-4.8-0.5-8.6-0.6c-8.6-0.2-16.3,0.2-19.3,0.3
				c-4.8,0.3-8.1,0.5-14.9,1c-6.9,0.5-17.5,1.3-30.3,2.6c-7.5,0.7-11.7,1.2-18.4,1.9c-23.2,2.5-25.5,2.4-53.2,5.2
				c-18.2,1.8-20.3,2.2-35.9,3.7c-16,1.6-16.3,1.6-24.2,2.4c-11.2,1.1-11,1.3-19.7,2.1c-7,0.7-12.4,1.1-15.9,1.4
				c-5.9,0.4-11.7,1-18.7,1.4c-9.5,0.6-17.2,1-27.3,1c-7.9,0-13.4-0.3-23.9-0.8c-8.8-0.4-15.5-0.7-24.5-1.6
				c-11.3-1.1-17.8-2.3-20.7-2.9c-6.7-1.3-10-2.1-13.7-3.5c-9.2-3.5-24.4-12-24.1-22.6c0-2.3,0.9-4.2,1.5-5.4c0,0,4-7.7,18.2-9.3
				c2.6-0.3,5.4-0.3,5.4-0.3c5.6,0.1,13.1,0.4,21.7,1.6c4.3,0.6,10.2,1.6,19.5,4c14.3,3.6,25.1,7.5,31.8,9.9
				C164.6,215.6,180.3,222.4,180.6,221.6z"/>
			<g>
				<path class="st1" d="M352.5,311.2c18.2-11.8,30.4-23.4,35.8-28.9c-28.1,19.8-80.5,48-151.9,48.1c-70,0.3-121.6-26.4-150-45.7
					c6.1,5.9,18.5,17.2,36.7,28.6l-3.5,35.8l21-25.9l0,0c25,12.6,57.3,23.1,96,23c39.9-0.1,73-11.4,98.3-24.6l21.3,25.4L352.5,311.2
					z"/>
				<path class="st1" d="M172.2,226.1c0.2-1.2-8.1-2.5-29-9.8c-6.7-2.3-7.7-2.9-13.9-5c-7.7-2.7-21.4-7.5-33.4-10.2
					c-20.4-4.7-50.8-6.7-54,2.2c-0.3,1-0.3,2-0.2,2.6c1,8.2,17.8,12.3,27.7,14.6c2.1,0.5,7.5,1.9,19.2,3.1
					c15.5,1.6,25.8,2.1,25.8,2.1C161,228.4,172.1,227.6,172.2,226.1z"/>
				<path class="st1" d="M420,255.8c0.2,0.3,5.2-2.1,9.6-4.1c0,0,15.5-7.3,25.3-14.4c0.6-0.4,1.7-1.6,4.1-3.8
					c0.6-0.6,1.3-1.3,1.7-2.4c0.2-0.5,0.6-1.7,0.1-2.9c-0.3-0.7-0.9-1.1-1.7-1.6c-1.4-0.9-2.6-1.3-3-1.5c-2.7-0.9-4.9-1-5.3-1
					c-5.4-0.4-8.9-0.5-8.9-0.5c-5.6-0.2-13.6-0.1-23.1,0.7c-6,0.5-10.4,1.1-17.5,2.2c-9.7,1.4-17,2.7-23.9,3.9
					c-7.3,1.3-13.1,2.4-15.2,2.9c-7.3,1.4-8.5,1.7-15.7,3.1c-5.2,1-9,1.6-14.7,2.7c-7.9,1.4-11.8,2.2-15.4,2.7
					c-6.5,1-6.7,0.8-13.2,1.8c-5.9,0.9-6.1,1.1-13.4,2.2c-4.1,0.7-7.7,1.1-14.8,2.2c-7.8,1.1-11.6,1.6-15.5,2.2
					c-6.1,0.8-10.5,1.2-18.9,2.1c-4.8,0.4-9.9,1-16.3,1.6c-3.4,0.3-13.3,1.1-26.8,2c-10.9,0.7-20.9,1.3-34.4,1.6
					c-8.7,0.2-17.9,0.4-30.3,0c-4.5-0.2-16.7-0.6-32.6-2.2c-11.1-1.1-18.8-1.9-29.5-4.1c0,0-14.2-2.9-24.6-6.8
					c-2.5-1-10.5-4.1-11.7-5c-0.1-0.1-0.3-0.2-0.3-0.2c-0.1,0.1,1.9,2.3,3.8,4.1c0.9,0.8,2,1.8,3.5,3c1.2,1,2.4,1.6,5.8,3.5
					c2.7,1.5,4.3,2.4,6.8,3.6c4.7,2.3,8.4,3.8,11.3,5c2.1,0.9,3.8,1.6,6.2,2.3c5.2,1.8,9.1,2.8,14,4c5.1,1.2,9.2,2.1,10.6,2.3
					c1.6,0.3,5.9,1.1,13.7,2.2c9.8,1.4,17.4,2.1,19.4,2.3c6.1,0.6,13.7,1.3,23.8,1.6c2.5,0.1,10.7,0.3,26-0.3c6-0.3,24.7-1,50.2-3.9
					c10.5-1.1,18.3-2.2,28.3-3.5c12.2-1.6,19.4-2.7,29.2-4.4c7.5-1.3,13.7-2.6,26-5.1c7-1.5,14.6-3,22.7-4.8
					c9.9-2.2,14.7-3.3,18.8-4.3c6.5-1.6,8.3-2.2,16.9-4.2c2.8-0.7,6.7-1.6,11.9-2.8c1.5-0.3,4.2-1,9.6-2.2c4.1-0.9,5.2-1.1,8.2-1.8
					c5.4-1.2,4.9-1.1,7.5-1.6c6.2-1.4,9.7-2.1,14.2-2.9c3.4-0.6,6-1,6.7-1c0,0,7.2-1,14.2-1.4c0.6,0,1.8,0,4.3,0
					c0.5,0,1.6,0,2.9,0.3c1.6,0.3,2.2,0.7,2.5,0.9c0.4,0.3,1.1,0.7,1.5,1.5c0.1,0.3,0.4,1.1-0.2,2.6c-1,2.5-3.5,3.8-9.9,8
					c-0.3,0.2-0.6,0.4-1.1,0.7c-1.2,0.7-2.4,1.4-5,2.8c-1.6,0.9-3.9,2.1-6.7,3.6C430.7,249.1,419.8,255.2,420,255.8z"/>
			</g>
		</g>
	</g>
</g>
</svg>
