<?xml version="1.0" encoding="utf-8"?>
<!-- Generator: Adobe Illustrator 24.0.3, SVG Export Plug-In . SVG Version: 6.00 Build 0)  -->
<svg version="1.1" id="Warstwa_1" xmlns="http://www.w3.org/2000/svg" xmlns:xlink="http://www.w3.org/1999/xlink" x="0px" y="0px"
	 viewBox="0 0 600 300" style="enable-background:new 0 0 600 300;" xml:space="preserve">
<style type="text/css">
	.st0{fill:#FFFFFF;}
</style>
<g>
	<g>
		<path class="st0" d="M244.8,108c0.5-1-18.5-10.5-24.4-13.5c-14.1-7.1-26-12.3-34.2-15.8c-12.7-5.4-21.3-9.1-33.7-13.3
			c-19-6.4-30.8-8.6-40.1-9.7C102.1,54.5,97.3,55,95,55.2c-5.6,0.6-17.8,2-27.1,11.5c-2.1,2.2-10.4,10.6-10.1,23
			c0.4,13,10,21.3,14.3,25c4.8,4.2,10.2,7,20.7,10.5c18.7,6.1,34.3,7.7,41.9,8.5c26.1,2.5,39.2,3.8,52.2,3.9
			c71.7,0.9,153.8-11.8,188.1-17.1c5.4-0.8,36.2-5.6,52.9-8.5c2-0.3,10.1-1.7,21.2-3.5c5.2-0.8,8.8-1.4,10.4-1.7
			c7.9-1.3,61.9-10,74.3-8.6c0.3,0,3.3,0.4,3.4,0.3l0,0c0,0-4.6-0.9-7.5-1.4c-3-0.5-5.6-0.6-9.9-0.7c-9.9-0.2-18.9,0.2-22.3,0.3
			c-5.6,0.3-9.4,0.6-17.2,1.1c-8,0.6-20.2,1.5-35.1,3c-8.7,0.8-13.5,1.4-21.3,2.2c-26.9,2.9-29.5,2.8-61.6,6
			c-21.1,2.1-23.5,2.5-41.5,4.3c-18.5,1.8-18.9,1.8-28,2.8c-13,1.3-12.7,1.5-22.8,2.4c-8.1,0.8-14.4,1.3-18.4,1.6
			c-6.8,0.5-13.5,1.1-21.6,1.6c-11,0.7-19.9,1.2-31.6,1.2c-9.1,0-15.5-0.3-27.6-0.9c-10.2-0.5-17.9-0.8-28.3-1.9
			c-13.1-1.3-20.6-2.7-24-3.4c-7.7-1.5-11.6-2.4-15.8-4c-10.6-4-28.2-13.9-27.9-26.2c0-2.7,1-4.9,1.7-6.3c0,0,4.6-8.9,21.1-10.8
			c3-0.3,6.2-0.3,6.2-0.3c6.5,0.1,15.1,0.5,25.1,1.9c5,0.7,11.8,1.9,22.6,4.6c16.5,4.2,29,8.7,36.8,11.5
			C226.2,101.1,244.4,108.9,244.8,108z"/>
		<g>
			<path class="st0" d="M443.7,211.7c21.1-13.7,35.2-27.1,41.4-33.4c-32.5,22.9-93.1,55.5-175.8,55.7c-81,0.3-140.7-30.5-173.6-52.9
				c7,6.8,21.4,19.9,42.5,33.1l-4.1,41.4l24.3-30h0c28.9,14.6,66.3,26.7,111.1,26.6c46.2-0.1,84.5-13.2,113.7-28.5l24.7,29.4
				L443.7,211.7z"/>
			<path class="st0" d="M235.1,113.2c0.2-1.4-9.4-2.9-33.6-11.3c-7.8-2.7-8.9-3.3-16.1-5.8c-8.9-3.1-24.8-8.7-38.6-11.8
				c-23.6-5.4-58.8-7.8-62.5,2.5c-0.4,1.2-0.3,2.3-0.2,3c1.2,9.5,20.6,14.2,32,16.9c2.4,0.6,8.7,2.2,22.2,3.6
				c17.9,1.9,29.9,2.4,29.9,2.4C222.1,115.9,234.9,114.9,235.1,113.2z"/>
			<path class="st0" d="M521.7,147.5c0.2,0.3,6-2.4,11.1-4.8c0,0,17.9-8.4,29.3-16.7c0.7-0.5,2-1.8,4.7-4.4c0.7-0.7,1.5-1.5,2-2.8
				c0.2-0.6,0.7-2,0.1-3.4c-0.4-0.8-1-1.3-2-1.9c-1.6-1-3-1.5-3.5-1.7c-3.1-1-5.7-1.2-6.1-1.2c-6.3-0.5-10.3-0.6-10.3-0.6
				c-6.5-0.2-15.7-0.1-26.7,0.8c-6.9,0.6-12,1.3-20.3,2.5c-11.2,1.6-19.7,3.1-27.6,4.5c-8.4,1.5-15.2,2.8-17.6,3.3
				c-8.4,1.6-9.8,2-18.2,3.6c-6,1.2-10.4,1.9-17,3.1c-9.1,1.6-13.7,2.5-17.8,3.1c-7.5,1.1-7.7,0.9-15.3,2.1c-6.8,1-7.1,1.3-15.5,2.6
				c-4.7,0.8-8.9,1.3-17.1,2.5c-9,1.3-13.4,1.9-17.9,2.5c-7.1,0.9-12.2,1.4-21.9,2.4c-5.5,0.5-11.4,1.1-18.9,1.8
				c-3.9,0.3-15.4,1.3-31,2.3c-12.6,0.8-24.2,1.5-39.8,1.8c-10.1,0.2-20.7,0.5-35.1,0c-5.2-0.2-19.3-0.7-37.7-2.6
				c-12.9-1.3-21.8-2.2-34.1-4.7c0,0-16.4-3.3-28.5-7.9c-2.9-1.1-12.2-4.8-13.5-5.8c-0.1-0.1-0.3-0.2-0.4-0.2
				c-0.1,0.1,2.2,2.7,4.4,4.7c1,0.9,2.3,2.1,4.1,3.5c1.4,1.1,2.8,1.9,6.7,4.1c3.1,1.7,5,2.8,7.9,4.2c5.4,2.7,9.7,4.4,13.1,5.8
				c2.4,1,4.4,1.8,7.2,2.7c6,2.1,10.5,3.2,16.2,4.6c5.9,1.4,10.6,2.4,12.3,2.7c1.8,0.3,6.8,1.3,15.9,2.6c11.3,1.6,20.1,2.4,22.5,2.7
				c7,0.7,15.9,1.5,27.5,1.8c2.9,0.1,12.4,0.3,30.1-0.4c6.9-0.3,28.6-1.2,58.1-4.5c12.1-1.3,21.2-2.6,32.8-4.1
				c14.1-1.9,22.5-3.1,33.8-5.1c8.7-1.5,15.9-3,30.1-5.9c8.1-1.7,16.9-3.5,26.3-5.6c11.4-2.5,17-3.8,21.7-5
				c7.5-1.9,9.6-2.5,19.5-4.9c3.2-0.8,7.8-1.9,13.8-3.2c1.7-0.4,4.9-1.1,11.1-2.5c4.7-1,6-1.3,9.5-2.1c6.3-1.4,5.7-1.3,8.7-1.9
				c7.2-1.6,11.2-2.4,16.4-3.4c3.9-0.7,6.9-1.1,7.7-1.2c0,0,8.3-1.2,16.4-1.6c0.7,0,2.1,0,5,0c0.6,0,1.8,0,3.4,0.3
				c1.8,0.3,2.6,0.8,2.9,1c0.5,0.4,1.3,0.8,1.7,1.7c0.1,0.3,0.5,1.3-0.2,3c-1.2,2.9-4,4.4-11.4,9.3c-0.3,0.2-0.7,0.5-1.3,0.8
				c-1.4,0.8-2.8,1.6-5.8,3.2c-1.8,1-4.5,2.4-7.7,4.2C534.1,139.8,521.5,146.9,521.7,147.5z"/>
		</g>
	</g>
</g>
</svg>
