<?xml version="1.0" encoding="utf-8"?>
<!-- Generator: Adobe Illustrator 24.0.3, SVG Export Plug-In . SVG Version: 6.00 Build 0)  -->
<svg version="1.1" id="Warstwa_1" xmlns="http://www.w3.org/2000/svg" xmlns:xlink="http://www.w3.org/1999/xlink" x="0px" y="0px"
	 viewBox="0 0 480 480" style="enable-background:new 0 0 480 480;" xml:space="preserve">
<style type="text/css">
	.st0{fill:#FFFFFF;}
</style>
<path class="st0" d="M281.3,148.6c-23.7,0-46.6,8.8-64.1,24.7c-20.3-25.9-56.9-32.3-84.7-14.8c-27.9,17.5-37.9,53.3-23.3,82.8
	c14.6,29.5,49.2,43.1,80,31.5c1.3,4.3,2.9,8.4,4.8,12.5c-18.7,12.3-27,35.6-20.4,57c6.6,21.4,26.7,35.9,49.1,35.4
	c22.4-0.4,41.9-15.7,47.7-37.3c35.4,4.1,70.2-11.8,90.4-41.2c20.1-29.4,22.3-67.6,5.7-99.2C349.7,168.3,317,148.5,281.3,148.6z
	 M111.8,212.7c0-23.6,15.1-44.6,37.5-52.1s47.1,0.2,61.3,19.2c-16.4,17.7-25.5,40.9-25.5,65c0,6.4,0.7,12.7,1.9,19
	c-16.9,6.8-36.1,4.7-51.2-5.5C120.8,248,111.8,230.9,111.8,212.7z M221.7,368.4c-22.8,0-41.2-18.5-41.2-41.2
	c0-22.8,18.5-41.2,41.2-41.2s41.2,18.5,41.2,41.2C262.9,350,244.5,368.4,221.7,368.4z M281.3,331.8c-3.1,0-6.3-0.2-9.4-0.6
	c0.1-1.3,0.2-2.7,0.2-4c0-16.9-8.5-32.7-22.5-42c-14.1-9.3-31.9-11-47.5-4.4c-2.3-4.9-4.1-10.1-5.4-15.4c-1.6-6.8-2.5-13.7-2.5-20.7
	c0-48.1,39-87,87-87c48.1,0,87,39,87,87C368.3,292.8,329.3,331.8,281.3,331.8z"/>
<path class="st0" d="M143.9,308.9c0-2.5-2.1-4.6-4.6-4.6s-4.6,2.1-4.6,4.6c0,7.6-6.2,13.7-13.7,13.7c-2.5,0-4.6,2.1-4.6,4.6
	s2.1,4.6,4.6,4.6c7.6,0,13.7,6.2,13.7,13.7c0,2.5,2.1,4.6,4.6,4.6s4.6-2.1,4.6-4.6c0-7.6,6.2-13.7,13.7-13.7c2.5,0,4.6-2.1,4.6-4.6
	s-2.1-4.6-4.6-4.6C150,322.6,143.9,316.5,143.9,308.9z M139.3,331.9c-1.3-1.8-2.9-3.4-4.7-4.7c1.8-1.3,3.4-2.9,4.7-4.7
	c1.3,1.8,2.9,3.4,4.7,4.7C142.2,328.5,140.6,330.1,139.3,331.9z"/>
<path class="st0" d="M327.1,144c0,2.5,2.1,4.6,4.6,4.6c2.5,0,4.6-2.1,4.6-4.6c0-7.6,6.2-13.7,13.7-13.7c2.5,0,4.6-2.1,4.6-4.6
	c0-2.5-2.1-4.6-4.6-4.6c-7.6,0-13.7-6.2-13.7-13.7c0-2.5-2.1-4.6-4.6-4.6c-2.5,0-4.6,2.1-4.6,4.6c0,7.6-6.2,13.7-13.7,13.7
	c-2.5,0-4.6,2.1-4.6,4.6c0,2.5,2.1,4.6,4.6,4.6C320.9,130.2,327.1,136.4,327.1,144z M331.7,120.9c1.3,1.8,2.9,3.4,4.7,4.7
	c-1.8,1.3-3.4,2.9-4.7,4.7c-1.3-1.8-2.9-3.4-4.7-4.7C328.7,124.3,330.3,122.7,331.7,120.9z"/>
<path class="st0" d="M340.8,244.8c-7.6,0-13.7-6.2-13.7-13.7c0-2.5-2.1-4.6-4.6-4.6c-2.5,0-4.6,2.1-4.6,4.6
	c0,7.6-6.2,13.7-13.7,13.7c-2.5,0-4.6,2.1-4.6,4.6c0,2.5,2.1,4.6,4.6,4.6c7.6,0,13.7,6.2,13.7,13.7c0,2.5,2.1,4.6,4.6,4.6
	c2.5,0,4.6-2.1,4.6-4.6c0-7.6,6.2-13.7,13.7-13.7c2.5,0,4.6-2.1,4.6-4.6C345.4,246.8,343.4,244.8,340.8,244.8z M322.5,254.1
	c-1.3-1.8-2.9-3.4-4.7-4.7c1.8-1.3,3.4-2.9,4.7-4.7c1.3,1.8,2.9,3.4,4.7,4.7C325.4,250.7,323.8,252.3,322.5,254.1z"/>
<path class="st0" d="M290.4,208.1c0-2.5-2.1-4.6-4.6-4.6c-7.6,0-13.7-6.2-13.7-13.7c0-2.5-2.1-4.6-4.6-4.6c-2.5,0-4.6,2.1-4.6,4.6
	c0,7.6-6.2,13.7-13.7,13.7c-2.5,0-4.6,2.1-4.6,4.6s2.1,4.6,4.6,4.6c7.6,0,13.7,6.2,13.7,13.7c0,2.5,2.1,4.6,4.6,4.6
	c2.5,0,4.6-2.1,4.6-4.6c0-7.6,6.2-13.7,13.7-13.7C288.4,212.7,290.4,210.6,290.4,208.1z M267.5,212.8c-1.3-1.8-2.9-3.4-4.7-4.7
	c1.8-1.3,3.4-2.9,4.7-4.7c1.3,1.8,2.9,3.4,4.7,4.7C270.5,209.4,268.9,211,267.5,212.8z"/>
<path class="st0" d="M157.6,290.6h9.2v9.2h-9.2V290.6z"/>
<path class="st0" d="M111.8,354.7h9.2v9.2h-9.2V354.7z"/>
<path class="st0" d="M372.9,340.9c0-7.6-6.2-13.7-13.7-13.7s-13.7,6.2-13.7,13.7c0,7.6,6.2,13.7,13.7,13.7S372.9,348.5,372.9,340.9z
	 M354.6,340.9c0-2.5,2.1-4.6,4.6-4.6c2.5,0,4.6,2.1,4.6,4.6c0,2.5-2.1,4.6-4.6,4.6C356.6,345.5,354.6,343.5,354.6,340.9z"/>
<path class="st0" d="M240.1,134.8c0-10.1-8.2-18.3-18.3-18.3s-18.3,8.2-18.3,18.3c0,10.1,8.2,18.3,18.3,18.3
	S240.1,144.9,240.1,134.8z M212.6,134.8c0-5.1,4.1-9.2,9.2-9.2c5.1,0,9.2,4.1,9.2,9.2c0,5.1-4.1,9.2-9.2,9.2
	C216.7,144,212.6,139.9,212.6,134.8z"/>
<path class="st0" d="M267.5,125.7h9.2v9.2h-9.2V125.7z"/>
<path class="st0" d="M285.9,295.1h9.2v9.2h-9.2V295.1z"/>
<path class="st0" d="M313.3,354.7h9.2v9.2h-9.2V354.7z"/>
<path class="st0" d="M157.6,221.9h9.2v9.2h-9.2V221.9z"/>
<path class="st0" d="M121,222.3l9.2-0.8c0-0.2-1.8-22,10.2-35.3c6.9-7,16.6-10.7,26.4-10.1v-9.2c-12.4-0.7-24.6,4.1-33.2,13.1
	C118.8,196.2,120.9,221.2,121,222.3z"/>
<path class="st0" d="M285.9,166.9v9.2c2.3,0,55.7,1,64.2,64.7l9.1-1.2C349.5,167.7,286.5,166.9,285.9,166.9z"/>
</svg>
