<?xml version="1.0" encoding="utf-8"?>
<!-- Generator: Adobe Illustrator 24.0.3, SVG Export Plug-In . SVG Version: 6.00 Build 0)  -->
<svg version="1.1" id="Warstwa_1" xmlns="http://www.w3.org/2000/svg" xmlns:xlink="http://www.w3.org/1999/xlink" x="0px" y="0px"
	 viewBox="0 0 512 512" style="enable-background:new 0 0 512 512;" xml:space="preserve">
<style type="text/css">
	.st0{fill:#30BFCE;}
	.st1{fill:#F7F7F7;}
</style>
<path class="st0" d="M261,16C128.7,16,21,123.7,21,256s107.7,240,240,240s240-107.7,240-240S393.3,16,261,16z"/>
<path class="st1" d="M390.8,201.8L252.1,340.4c-4.2,4.2-9.6,6.3-15.1,6.3s-10.9-2.1-15.1-6.3l-69.3-69.3c-8.3-8.3-8.3-21.8,0-30.2
	c8.3-8.3,21.8-8.3,30.2,0l54.2,54.2l123.6-123.6c8.3-8.3,21.8-8.3,30.2,0C399.1,179.9,399.1,193.4,390.8,201.8z"/>
</svg>
