<?xml version="1.0" encoding="utf-8"?>
<!-- Generator: Adobe Illustrator 24.0.3, SVG Export Plug-In . SVG Version: 6.00 Build 0)  -->
<svg version="1.1" id="Capa_1" xmlns="http://www.w3.org/2000/svg" xmlns:xlink="http://www.w3.org/1999/xlink" x="0px" y="0px"
	 viewBox="0 0 512 512" style="enable-background:new 0 0 512 512;" xml:space="preserve">
<style type="text/css">
	.st0{fill:#30BFCE;}
</style>
<g>
	<g>
		<path class="st0" d="M421.9,211.8v238.5h-90.1V347.2c0-9-7.3-16.4-16.4-16.4H200.3c-9,0-16.4,7.3-16.4,16.4v103.2H94.4V211.8H61.7
			v254.9c0,9,7.3,16.4,16.4,16.4h122.3c9,0,16.4-7.3,16.4-16.4V363.5h82.4v103.2c0,9,7.3,16.4,16.4,16.4h122.8
			c9,0,16.4-7.3,16.4-16.4V211.8H421.9z"/>
	</g>
</g>
<g>
	<g>
		<path class="st0" d="M506.8,255.5L269.4,33.4c-6.2-5.9-16-5.9-22.3-0.1L5.3,255.4c-6.7,6.1-7.1,16.5-1,23.1
			c3.2,3.5,7.6,5.3,12.1,5.3c4,0,7.9-1.4,11.1-4.3L258.1,67.6l226.4,211.8c6.6,6.2,17,5.8,23.1-0.8
			C513.8,272,513.4,261.7,506.8,255.5z"/>
	</g>
</g>
</svg>
