<?xml version="1.0" encoding="utf-8"?>
<!-- Generator: Adobe Illustrator 24.0.3, SVG Export Plug-In . SVG Version: 6.00 Build 0)  -->
<svg version="1.1" id="Warstwa_1" xmlns="http://www.w3.org/2000/svg" xmlns:xlink="http://www.w3.org/1999/xlink" x="0px" y="0px"
	 viewBox="0 0 300 150" style="enable-background:new 0 0 300 150;" xml:space="preserve">
<style type="text/css">
	.st0{fill:#3FBBCB;}
</style>
<g>
	<g>
		<g>
			<path class="st0" d="M146.3,51.7h12.6c5.5,0,7.8,2.7,7.8,5.9c0,2.6-1.6,4.2-3.4,4.9c2.2,0.7,4.2,2.4,4.2,5.3
				c0,4.3-3.3,6.8-8.9,6.8h-12.4V51.7z M157.8,60.6c2.5,0,3.3-1,3.3-2.4c0-1.7-1.3-2.4-3.2-2.4h-6.1v4.8H157.8z M151.7,70.4h6.3
				c2.1,0,3.8-0.6,3.8-2.9c0-1.8-1.2-2.8-3.6-2.8h-6.4V70.4z"/>
			<path class="st0" d="M190.2,64.8h-12.7V70h14.2l-0.6,4.4h-19V51.7h18.9v4.4h-13.4v4.3h12.7V64.8z"/>
			<path class="st0" d="M201.5,69.3l-2,5.2h-5.7l9.2-22.8h7.1l9.7,22.8h-6l-2.1-5.2H201.5z M210.1,64.9c-2.1-5.2-3.2-7.9-3.7-9.6h0
				c-0.5,1.7-1.7,5.2-3.4,9.6H210.1z"/>
			<path class="st0" d="M226.7,74.5l-9.3-22.8h6.1l4,10.9c1.5,4.1,2.2,6.3,2.6,7.8h0.1c0.4-1.3,0.7-2.3,2.8-8.2l3.9-10.4h5.9
				l-9.5,22.8H226.7z"/>
			<path class="st0" d="M263.8,64.8H251V70h14.2l-0.6,4.4h-19V51.7h18.9v4.4H251v4.3h12.7V64.8z"/>
			<path class="st0" d="M274.8,65.7v8.8h-5.5V51.7h12.4c5.3,0,8.3,2.6,8.3,6.5c0,2.9-1.7,4.7-4,5.4c0.9,0.4,3.4,1.3,3.4,5.4v1.1
				c0,1.6,0,3.3,0.3,4.4H284c-0.4-1-0.4-2.4-0.4-4.8v-0.7c0-2.3-0.8-3.3-4.2-3.3H274.8z M274.8,61.5h5.7c2.7,0,3.9-1,3.9-2.9
				c0-1.8-1.2-2.8-3.8-2.8h-5.8V61.5z"/>
		</g>
		<g>
			<path class="st0" d="M150.1,85.8c1.9,0,2.9,0.8,2.9,2.4c0,1.6-1,2.5-2.9,2.5h-2.4v3.4h-1v-8.3H150.1z M147.7,89.8h2.4
				c0.7,0,1.2-0.1,1.5-0.4c0.3-0.3,0.5-0.7,0.5-1.2c0-0.6-0.2-1-0.5-1.2c-0.3-0.3-0.8-0.4-1.5-0.4h-2.4V89.8z"/>
			<path class="st0" d="M158.7,88.9c0.4,0.6,0.7,1.4,0.7,2.5h-4.7c0,0.7,0.2,1.2,0.5,1.6c0.3,0.4,0.8,0.6,1.3,0.6
				c0.5,0,0.9-0.1,1.2-0.4c0.3-0.2,0.5-0.5,0.6-0.9h0.9c-0.1,0.6-0.4,1-0.8,1.4c-0.5,0.4-1.1,0.7-1.9,0.7c-0.9,0-1.6-0.3-2.1-0.8
				c-0.5-0.6-0.8-1.3-0.8-2.3c0-0.9,0.2-1.6,0.8-2.2c0.5-0.6,1.2-0.9,2.1-0.9C157.5,87.9,158.2,88.2,158.7,88.9z M155.3,89.2
				c-0.3,0.3-0.5,0.8-0.6,1.4h3.8c-0.1-1.3-0.8-1.9-1.9-1.9C156,88.7,155.6,88.8,155.3,89.2z"/>
			<path class="st0" d="M164.9,88.4c0.5,0.4,0.7,0.9,0.8,1.6h-0.9c-0.1-0.5-0.3-0.8-0.6-1c-0.3-0.2-0.7-0.3-1.2-0.3
				c-0.6,0-1,0.2-1.4,0.7c-0.3,0.4-0.5,1-0.5,1.7c0,0.7,0.2,1.3,0.5,1.7c0.3,0.4,0.8,0.6,1.4,0.6c1,0,1.6-0.5,1.8-1.6h0.9
				c-0.1,0.8-0.4,1.4-0.9,1.8c-0.5,0.4-1,0.6-1.8,0.6c-0.9,0-1.6-0.3-2.1-0.9c-0.5-0.6-0.7-1.3-0.7-2.2s0.2-1.7,0.7-2.2
				c0.5-0.6,1.2-1,2.1-1C163.8,87.9,164.4,88.1,164.9,88.4z"/>
			<path class="st0" d="M171.6,88v0.8h-2.1v5.2h-0.9v-5.2h-2.1V88H171.6z"/>
			<path class="st0" d="M177.1,88.6c0.3,0.4,0.5,0.9,0.5,1.6v3.9h-0.9v-1c-0.2,0.3-0.5,0.6-0.9,0.8c-0.4,0.2-0.9,0.4-1.5,0.4
				c-0.6,0-1.1-0.2-1.4-0.5c-0.4-0.3-0.6-0.7-0.6-1.2c0-0.7,0.3-1.2,0.8-1.5c0.5-0.3,1.2-0.5,2.1-0.5l1.4,0v-0.3
				c0-1-0.5-1.5-1.6-1.5c-0.4,0-0.8,0.1-1.1,0.3c-0.3,0.2-0.5,0.5-0.6,0.9l-0.9-0.1c0.1-0.6,0.4-1.1,0.9-1.4c0.4-0.3,1-0.4,1.7-0.4
				C176.1,87.9,176.7,88.1,177.1,88.6z M175.4,91.2c-1.3,0-2,0.5-2,1.3c0,0.3,0.1,0.5,0.3,0.7c0.2,0.2,0.5,0.3,0.9,0.3
				c0.6,0,1.1-0.2,1.5-0.6c0.4-0.4,0.7-0.8,0.7-1.2v-0.5L175.4,91.2z"/>
			<path class="st0" d="M182.1,88c0.6,0,1,0.1,1.3,0.3c0.3,0.2,0.5,0.6,0.5,1.2c0,0.7-0.4,1.1-1.1,1.4c0.9,0.3,1.3,0.7,1.3,1.4
				c0,0.6-0.2,1-0.5,1.3c-0.4,0.3-0.9,0.5-1.6,0.5h-2.9v-6H182.1z M180,90.6h1.8c0.4,0,0.7-0.1,0.9-0.2c0.2-0.2,0.4-0.4,0.4-0.7
				c0-0.6-0.4-0.9-1.2-0.9H180V90.6z M180,93.3h1.9c0.5,0,0.9-0.1,1.1-0.3c0.2-0.2,0.3-0.4,0.3-0.7c0-0.7-0.5-1-1.5-1H180V93.3z"/>
			<path class="st0" d="M190.3,88.8c0.5,0.6,0.7,1.3,0.7,2.2c0,0.9-0.2,1.6-0.7,2.2c-0.5,0.6-1.2,1-2,1s-1.5-0.4-2-1.3v3.4h-0.9V88
				h0.9v1c0.4-0.8,1.1-1.2,2-1.2C189.1,87.9,189.8,88.2,190.3,88.8z M186.7,89.4c-0.3,0.4-0.5,1-0.5,1.6v0.1c0,0.7,0.2,1.3,0.5,1.7
				c0.3,0.4,0.8,0.6,1.3,0.6c0.7,0,1.1-0.2,1.5-0.7c0.3-0.4,0.5-1,0.5-1.7c0-0.7-0.2-1.3-0.4-1.7c-0.3-0.5-0.8-0.7-1.5-0.7
				C187.5,88.6,187.1,88.9,186.7,89.4z"/>
			<path class="st0" d="M196.7,88.6c0.3,0.4,0.5,0.9,0.5,1.6v3.9h-0.9v-1c-0.2,0.3-0.5,0.6-0.9,0.8c-0.4,0.2-0.9,0.4-1.5,0.4
				c-0.6,0-1.1-0.2-1.4-0.5c-0.4-0.3-0.6-0.7-0.6-1.2c0-0.7,0.3-1.2,0.8-1.5c0.5-0.3,1.2-0.5,2.1-0.5l1.4,0v-0.3
				c0-1-0.5-1.5-1.6-1.5c-0.4,0-0.8,0.1-1.1,0.3c-0.3,0.2-0.5,0.5-0.6,0.9l-0.9-0.1c0.1-0.6,0.4-1.1,0.9-1.4c0.4-0.3,1-0.4,1.7-0.4
				C195.7,87.9,196.3,88.1,196.7,88.6z M194.9,91.2c-1.3,0-2,0.5-2,1.3c0,0.3,0.1,0.5,0.3,0.7c0.2,0.2,0.5,0.3,0.9,0.3
				c0.6,0,1.1-0.2,1.5-0.6c0.4-0.4,0.7-0.8,0.7-1.2v-0.5L194.9,91.2z"/>
			<path class="st0" d="M199.6,88v5.2h3V88h0.9v5.2h0.9v2.4h-0.9v-1.6h-4.8v-6H199.6z"/>
			<path class="st0" d="M206.4,88v4.7l3.2-4.7h1v6h-0.9v-4.7l-3.2,4.7h-1v-6H206.4z"/>
			<path class="st0" d="M216.8,94.1h-0.9v-2.5h-1.6l-1.4,2.5h-1.1l1.5-2.6c-0.2,0-0.3-0.1-0.5-0.2c-0.5-0.3-0.7-0.8-0.7-1.4
				c0-0.6,0.2-1,0.6-1.3c0.4-0.3,1-0.5,1.7-0.5h2.4V94.1z M213.1,89.8c0,0.3,0.1,0.6,0.3,0.8c0.2,0.2,0.6,0.3,1,0.3h1.5v-2h-1.4
				C213.5,88.8,213.1,89.1,213.1,89.8z"/>
			<path class="st0" d="M225.1,88c0.6,0,1,0.1,1.3,0.3c0.3,0.2,0.5,0.6,0.5,1.2c0,0.7-0.4,1.1-1.1,1.4c0.9,0.3,1.3,0.7,1.3,1.4
				c0,0.6-0.2,1-0.5,1.3c-0.4,0.3-0.9,0.5-1.6,0.5h-2.9v-6H225.1z M223.1,90.6h1.8c0.4,0,0.7-0.1,0.9-0.2c0.2-0.2,0.4-0.4,0.4-0.7
				c0-0.6-0.4-0.9-1.2-0.9h-1.9V90.6z M223.1,93.3h1.9c0.5,0,0.9-0.1,1.1-0.3c0.2-0.2,0.3-0.4,0.3-0.7c0-0.7-0.5-1-1.5-1h-1.8V93.3z
				"/>
			<path class="st0" d="M232.9,88.6c0.3,0.4,0.5,0.9,0.5,1.6v3.9h-0.9v-1c-0.2,0.3-0.5,0.6-0.9,0.8c-0.4,0.2-0.9,0.4-1.5,0.4
				c-0.6,0-1.1-0.2-1.4-0.5c-0.4-0.3-0.6-0.7-0.6-1.2c0-0.7,0.3-1.2,0.8-1.5c0.5-0.3,1.2-0.5,2.1-0.5l1.4,0v-0.3
				c0-1-0.5-1.5-1.6-1.5c-0.4,0-0.8,0.1-1.1,0.3c-0.3,0.2-0.5,0.5-0.6,0.9l-0.9-0.1c0.1-0.6,0.4-1.1,0.9-1.4c0.4-0.3,1-0.4,1.7-0.4
				C231.9,87.9,232.5,88.1,232.9,88.6z M231.1,91.2c-1.3,0-2,0.5-2,1.3c0,0.3,0.1,0.5,0.3,0.7c0.2,0.2,0.5,0.3,0.9,0.3
				c0.6,0,1.1-0.2,1.5-0.6c0.4-0.4,0.7-0.8,0.7-1.2v-0.5L231.1,91.2z"/>
			<path class="st0" d="M235.8,88v2.5h3.2V88h0.9v6h-0.9v-2.8h-3.2v2.8h-0.9v-6H235.8z"/>
			<path class="st0" d="M242.4,88v2.5h3.2V88h0.9v6h-0.9v-2.8h-3.2v2.8h-0.9v-6H242.4z"/>
		</g>
	</g>
	<g>
		<g>
			<path class="st0" d="M54.9,75.4c0.1-0.2-4.5-2.6-6-3.3c-3.5-1.7-6.4-3-8.4-3.9c-3.1-1.3-5.2-2.2-8.2-3.2
				c-4.7-1.6-7.5-2.1-9.8-2.4c-2.5-0.3-3.7-0.2-4.3-0.1c-1.4,0.2-4.4,0.5-6.6,2.8C11,65.9,9,67.9,9.1,70.9c0.1,3.2,2.5,5.2,3.5,6.1
				c1.2,1,2.5,1.7,5.1,2.6c4.6,1.5,8.4,1.9,10.3,2.1c6.4,0.6,9.6,0.9,12.8,1c17.6,0.2,37.7-2.9,46.1-4.2c1.3-0.2,8.9-1.4,13-2.1
				c0.5-0.1,2.5-0.4,5.2-0.9c1.3-0.2,2.2-0.3,2.6-0.4c1.9-0.3,15.2-2.4,18.2-2.1c0.1,0,0.8,0.1,0.8,0.1l0,0c0,0-1.1-0.2-1.8-0.3
				c-0.7-0.1-1.4-0.2-2.4-0.2c-2.4-0.1-4.6,0-5.5,0.1c-1.4,0.1-2.3,0.1-4.2,0.3c-2,0.1-4.9,0.4-8.6,0.7c-2.1,0.2-3.3,0.3-5.2,0.5
				c-6.6,0.7-7.2,0.7-15.1,1.5c-5.2,0.5-5.8,0.6-10.2,1c-4.5,0.5-4.6,0.4-6.9,0.7c-3.2,0.3-3.1,0.4-5.6,0.6c-2,0.2-3.5,0.3-4.5,0.4
				c-1.7,0.1-3.3,0.3-5.3,0.4c-2.7,0.2-4.9,0.3-7.7,0.3c-2.2,0-3.8-0.1-6.8-0.2c-2.5-0.1-4.4-0.2-6.9-0.5c-3.2-0.3-5-0.7-5.9-0.8
				c-1.9-0.4-2.8-0.6-3.9-1c-2.6-1-6.9-3.4-6.8-6.4c0-0.7,0.2-1.2,0.4-1.5c0,0,1.1-2.2,5.2-2.6c0.7-0.1,1.5-0.1,1.5-0.1
				c1.6,0,3.7,0.1,6.1,0.5c1.2,0.2,2.9,0.5,5.5,1.1c4,1,7.1,2.1,9,2.8C50.3,73.7,54.8,75.7,54.9,75.4z"/>
			<g>
				<path class="st0" d="M103.6,100.8c5.2-3.4,8.6-6.6,10.1-8.2c-8,5.6-22.8,13.6-43.1,13.7c-19.8,0.1-34.5-7.5-42.5-13
					c1.7,1.7,5.2,4.9,10.4,8.1l-1,10.1l6-7.4l0,0c7.1,3.6,16.2,6.5,27.2,6.5c11.3,0,20.7-3.2,27.9-7l6.1,7.2L103.6,100.8z"/>
				<path class="st0" d="M52.5,76.7c0-0.3-2.3-0.7-8.2-2.8c-1.9-0.7-2.2-0.8-3.9-1.4c-2.2-0.8-6.1-2.1-9.4-2.9
					c-5.8-1.3-14.4-1.9-15.3,0.6c-0.1,0.3-0.1,0.6-0.1,0.7c0.3,2.3,5,3.5,7.8,4.1c0.6,0.1,2.1,0.5,5.4,0.9c4.4,0.5,7.3,0.6,7.3,0.6
					C49.3,77.4,52.5,77.1,52.5,76.7z"/>
				<path class="st0" d="M122.7,85.1c0,0.1,1.5-0.6,2.7-1.2c0,0,4.4-2,7.2-4.1c0.2-0.1,0.5-0.4,1.2-1.1c0.2-0.2,0.4-0.4,0.5-0.7
					c0-0.1,0.2-0.5,0-0.8c-0.1-0.2-0.3-0.3-0.5-0.5c-0.4-0.3-0.7-0.4-0.8-0.4c-0.8-0.2-1.4-0.3-1.5-0.3c-1.5-0.1-2.5-0.1-2.5-0.1
					c-1.6,0-3.9,0-6.6,0.2c-1.7,0.1-2.9,0.3-5,0.6c-2.7,0.4-4.8,0.8-6.8,1.1c-2.1,0.4-3.7,0.7-4.3,0.8c-2.1,0.4-2.4,0.5-4.5,0.9
					c-1.5,0.3-2.5,0.5-4.2,0.8c-2.2,0.4-3.4,0.6-4.3,0.8c-1.8,0.3-1.9,0.2-3.7,0.5c-1.7,0.3-1.7,0.3-3.8,0.6
					c-1.2,0.2-2.2,0.3-4.2,0.6c-2.2,0.3-3.3,0.5-4.4,0.6c-1.7,0.2-3,0.3-5.4,0.6c-1.3,0.1-2.8,0.3-4.6,0.4c-0.9,0.1-3.8,0.3-7.6,0.6
					c-3.1,0.2-5.9,0.4-9.7,0.4c-2.5,0.1-5.1,0.1-8.6,0c-1.3,0-4.7-0.2-9.2-0.6c-3.1-0.3-5.3-0.5-8.4-1.2c0,0-4-0.8-7-1.9
					c-0.7-0.3-3-1.2-3.3-1.4c0,0-0.1-0.1-0.1,0c0,0,0.5,0.7,1.1,1.2c0.2,0.2,0.6,0.5,1,0.9c0.3,0.3,0.7,0.5,1.6,1
					c0.8,0.4,1.2,0.7,1.9,1c1.3,0.7,2.4,1.1,3.2,1.4c0.6,0.2,1.1,0.4,1.8,0.7c1.5,0.5,2.6,0.8,4,1.1c1.5,0.4,2.6,0.6,3,0.7
					c0.4,0.1,1.7,0.3,3.9,0.6c2.8,0.4,4.9,0.6,5.5,0.7c1.7,0.2,3.9,0.4,6.7,0.5c0.7,0,3,0.1,7.4-0.1c1.7-0.1,7-0.3,14.2-1.1
					c3-0.3,5.2-0.6,8-1c3.5-0.5,5.5-0.8,8.3-1.2c2.1-0.4,3.9-0.7,7.4-1.5c2-0.4,4.1-0.9,6.4-1.4c2.8-0.6,4.2-0.9,5.3-1.2
					c1.8-0.5,2.3-0.6,4.8-1.2c0.8-0.2,1.9-0.5,3.4-0.8c0.4-0.1,1.2-0.3,2.7-0.6c1.1-0.3,1.5-0.3,2.3-0.5c1.6-0.3,1.4-0.3,2.1-0.5
					c1.8-0.4,2.7-0.6,4-0.8c1-0.2,1.7-0.3,1.9-0.3c0,0,2-0.3,4-0.4c0.2,0,0.5,0,1.2,0c0.1,0,0.4,0,0.8,0.1c0.4,0.1,0.6,0.2,0.7,0.2
					c0.1,0.1,0.3,0.2,0.4,0.4c0,0.1,0.1,0.3-0.1,0.7c-0.3,0.7-1,1.1-2.8,2.3c-0.1,0.1-0.2,0.1-0.3,0.2c-0.3,0.2-0.7,0.4-1.4,0.8
					c-0.4,0.2-1.1,0.6-1.9,1C125.7,83.2,122.6,85,122.7,85.1z"/>
			</g>
		</g>
		<g>
			<g>
				<path id="XMLID_18_" class="st0" d="M89.3,51.3C81.1,55.8,72,58.2,63,58.2c-6.9,0-13.6-1.4-19.7-4.1c0.2,0.1,0.5,0.2,0.7,0.3
					c0.8,0.4,1.7,0.8,2.5,1.1c5.8,2.4,12,3.6,18.4,3.6c8.6,0,17.2-2.2,25-6.4L89.3,51.3z"/>
				<path id="XMLID_16_" class="st0" d="M91.4,56c-0.9,0.5-1.8,0.9-2.7,1.3c-6.9,3.2-14.3,4.8-21.8,4.8c-7.5,0-15-1.7-21.8-4.9
					c-0.6-0.3-1.2-0.6-1.7-0.9c0,0,0,0-0.1,0c7.7,4.5,16.4,6.8,25.5,6.8c8.1,0,16.1-1.9,23.2-5.6L91.4,56z"/>
				<path id="XMLID_14_" class="st0" d="M43.6,58.8c0.2,0.1,0.4,0.3,0.6,0.4c8.7,5.4,18.5,8.3,28.5,8.3c6.4,0,12.6-1.2,18.5-3.5
					c0.6-0.2,1.2-0.5,1.7-0.7c0.3-0.1,0.6-0.3,0.9-0.4c0.2-0.1,0.4-0.2,0.5-0.3L93.6,61c-0.4,0.2-0.8,0.4-1.2,0.6
					c-0.3,0.1-0.6,0.3-0.9,0.4C85,64.9,78,66.3,70.8,66.3c-9.4,0-18.7-2.5-26.9-7.3C43.8,58.9,43.7,58.9,43.6,58.8z"/>
			</g>
			<g>
				<g id="XMLID_19_">
					<path id="XMLID_21_" class="st0" d="M96.1,47.6l-1.8,0.8l6.7,15l1.8-0.8l0,0c-1.6-3.5,0.2-7.5,3.9-8.7c4.1-1.3,8.7-1.6,12-4.8
						c0.3-0.3,1.2-1.3,0.6-2.7c-0.6-1.4-1.9-1.4-2.3-1.4c-4.6,0.3-7.9,3.5-11.6,5.7c-3.3,1.9-7.5,0.5-9.1-2.9L96.1,47.6z
						 M115.7,46.3c0.7-0.3,1.6,0,1.9,0.7c0.3,0.7,0,1.6-0.7,1.9c-0.7,0.3-1.6,0-1.9-0.7C114.7,47.5,115,46.6,115.7,46.3z"/>
					
						<rect id="XMLID_20_" x="93.7" y="48.7" transform="matrix(-0.9132 0.4076 -0.4076 -0.9132 205.7127 70.0255)" class="st0" width="3.5" height="16.4"/>
				</g>
				<g>
					<path id="XMLID_17_" class="st0" d="M90.3,53.6c-7.9,4.2-16.6,6.5-25.4,6.5c-6.5,0-12.8-1.2-18.7-3.6c-0.9-0.4-1.7-0.7-2.6-1.1
						c-0.1,0-0.1-0.1-0.2-0.1c0.2,0.1,0.3,0.2,0.5,0.3c0.6,0.3,1.1,0.6,1.7,0.8c6.6,3.1,14,4.8,21.3,4.8c7.4,0,14.6-1.6,21.4-4.7
						c0.9-0.4,1.8-0.8,2.7-1.3L90.3,53.6z"/>
					<path id="XMLID_15_" class="st0" d="M43.6,57.7c0.3,0.2,0.5,0.3,0.8,0.5c8.1,4.7,17.2,7.2,26.4,7.2c7.1,0,13.9-1.4,20.3-4.3
						c0.3-0.1,0.6-0.3,0.9-0.4c0.4-0.2,0.8-0.4,1.2-0.6l-0.7-1.6c-7.3,3.7-15.4,5.7-23.6,5.7C59.9,64.2,51.3,62,43.6,57.7z"/>
					<path id="XMLID_13_" class="st0" d="M43.7,60.1c9.3,6.3,20.1,9.7,30.9,9.7c7.3,0,14.5-1.6,20.9-4.6l-0.7-1.7
						c-0.2,0.1-0.4,0.2-0.5,0.3c-0.3,0.1-0.6,0.3-0.9,0.4c-0.6,0.3-1.2,0.5-1.8,0.8c-6,2.4-12.3,3.6-18.9,3.6
						C62.6,68.5,52.5,65.6,43.7,60.1z"/>
				</g>
			</g>
		</g>
	</g>
</g>
</svg>
