<?xml version="1.0" encoding="utf-8"?>
<!-- Generator: Adobe Illustrator 24.0.3, SVG Export Plug-In . SVG Version: 6.00 Build 0)  -->
<svg version="1.1" id="Warstwa_1" xmlns="http://www.w3.org/2000/svg" xmlns:xlink="http://www.w3.org/1999/xlink" x="0px" y="0px"
	 viewBox="0 0 300 150" style="enable-background:new 0 0 300 150;" xml:space="preserve">
<style type="text/css">
	.st0{fill:#2B2C2C;}
	.st1{fill:#3FBBCB;}
</style>
<g>
	<g>
		<g>
			<path class="st0" d="M149.1,49.2h12.5c5.4,0,7.7,2.6,7.7,5.8c0,2.6-1.6,4.2-3.4,4.8c2.2,0.7,4.2,2.4,4.2,5.2
				c0,4.2-3.2,6.7-8.8,6.7h-12.3V49.2z M160.4,58c2.4,0,3.2-1,3.2-2.3c0-1.7-1.3-2.4-3.2-2.4h-6V58H160.4z M154.5,67.6h6.2
				c2.1,0,3.7-0.6,3.7-2.8c0-1.8-1.2-2.7-3.6-2.7h-6.3V67.6z"/>
			<path class="st0" d="M192.4,62.2h-12.6v5.1h14l-0.6,4.4h-18.8V49.2h18.7v4.4h-13.2v4.3h12.6V62.2z"/>
			<path class="st0" d="M203.6,66.6l-2,5.1H196l9.1-22.5h7l9.5,22.5h-5.9l-2.1-5.1H203.6z M212.1,62.2c-2.1-5.2-3.1-7.8-3.7-9.5h0
				c-0.5,1.7-1.7,5.1-3.4,9.5H212.1z"/>
			<path class="st0" d="M228.5,71.7l-9.2-22.5h6l4,10.7c1.5,4.1,2.1,6.2,2.5,7.7h0.1c0.4-1.3,0.7-2.3,2.8-8.1l3.8-10.3h5.8L235,71.7
				H228.5z"/>
			<path class="st0" d="M265.1,62.2h-12.6v5.1h14l-0.6,4.4H247V49.2h18.7v4.4h-13.2v4.3h12.6V62.2z"/>
			<path class="st0" d="M276,63v8.7h-5.4V49.2h12.3c5.2,0,8.2,2.6,8.2,6.4c0,2.9-1.7,4.6-3.9,5.3c0.9,0.4,3.3,1.2,3.3,5.3v1.1
				c0,1.5,0,3.3,0.3,4.3h-5.6c-0.4-1-0.4-2.3-0.4-4.7v-0.7c0-2.3-0.8-3.2-4.1-3.2H276z M276,58.9h5.6c2.7,0,3.8-1,3.8-2.9
				c0-1.8-1.2-2.8-3.8-2.8H276V58.9z"/>
		</g>
		<g>
			<path class="st1" d="M152.9,82.8c1.9,0,2.8,0.8,2.8,2.4c0,1.6-1,2.4-2.8,2.4h-2.4V91h-0.9v-8.2H152.9z M150.5,86.9h2.4
				c0.7,0,1.1-0.1,1.5-0.4c0.3-0.3,0.5-0.7,0.5-1.2c0-0.6-0.2-1-0.5-1.2c-0.3-0.3-0.8-0.4-1.5-0.4h-2.4V86.9z"/>
			<path class="st1" d="M161.4,85.9c0.4,0.6,0.7,1.4,0.7,2.4h-4.7c0,0.7,0.2,1.2,0.5,1.5c0.3,0.4,0.8,0.6,1.3,0.6
				c0.5,0,0.9-0.1,1.2-0.4c0.3-0.2,0.4-0.5,0.6-0.9h0.9c-0.1,0.6-0.4,1-0.8,1.4c-0.5,0.4-1.1,0.7-1.9,0.7c-0.8,0-1.5-0.3-2-0.8
				c-0.5-0.6-0.8-1.3-0.8-2.3c0-0.9,0.2-1.6,0.7-2.2c0.5-0.6,1.2-0.9,2-0.9C160.2,84.9,160.9,85.2,161.4,85.9z M158,86.2
				c-0.3,0.3-0.5,0.8-0.6,1.4h3.7c-0.1-1.3-0.7-1.9-1.9-1.9C158.7,85.7,158.3,85.9,158,86.2z"/>
			<path class="st1" d="M167.5,85.4c0.5,0.4,0.7,0.9,0.8,1.6h-0.9c-0.1-0.5-0.3-0.8-0.6-1c-0.3-0.2-0.7-0.3-1.1-0.3
				c-0.6,0-1,0.2-1.4,0.7c-0.3,0.4-0.5,1-0.5,1.7c0,0.7,0.1,1.3,0.5,1.7c0.3,0.4,0.8,0.6,1.4,0.6c1,0,1.6-0.5,1.7-1.5h0.9
				c-0.1,0.8-0.4,1.3-0.9,1.7c-0.4,0.4-1,0.6-1.8,0.6c-0.9,0-1.6-0.3-2.1-0.9c-0.5-0.6-0.7-1.3-0.7-2.2c0-0.9,0.2-1.6,0.7-2.2
				c0.5-0.6,1.2-0.9,2.1-0.9C166.4,84.9,167,85.1,167.5,85.4z"/>
			<path class="st1" d="M174.1,85.1v0.8H172V91h-0.9v-5.2H169v-0.8H174.1z"/>
			<path class="st1" d="M179.5,85.6c0.3,0.4,0.5,0.9,0.5,1.6V91h-0.9v-1c-0.2,0.3-0.5,0.6-0.9,0.8c-0.4,0.2-0.9,0.4-1.5,0.4
				c-0.6,0-1.1-0.1-1.4-0.4c-0.4-0.3-0.6-0.7-0.6-1.2c0-0.7,0.3-1.2,0.8-1.5c0.5-0.3,1.2-0.5,2.1-0.5l1.4,0v-0.3
				c0-1-0.5-1.5-1.5-1.5c-0.4,0-0.8,0.1-1.1,0.3c-0.3,0.2-0.5,0.5-0.6,0.8l-0.9-0.1c0.1-0.6,0.4-1.1,0.9-1.4c0.4-0.3,1-0.4,1.7-0.4
				C178.5,84.9,179.1,85.1,179.5,85.6z M177.8,88.2c-1.3,0-2,0.5-2,1.3c0,0.3,0.1,0.5,0.3,0.7c0.2,0.2,0.5,0.3,0.9,0.3
				c0.6,0,1.1-0.2,1.5-0.6c0.4-0.4,0.6-0.8,0.6-1.2v-0.5L177.8,88.2z"/>
			<path class="st1" d="M184.5,85.1c0.6,0,1,0.1,1.3,0.3c0.3,0.2,0.5,0.6,0.5,1.1c0,0.7-0.4,1.1-1.1,1.4c0.8,0.3,1.3,0.7,1.3,1.4
				c0,0.6-0.2,1-0.5,1.3c-0.4,0.3-0.9,0.4-1.6,0.4h-2.9v-5.9H184.5z M182.4,87.6h1.8c0.4,0,0.7-0.1,0.9-0.2c0.2-0.2,0.4-0.4,0.4-0.7
				c0-0.6-0.4-0.9-1.2-0.9h-1.9V87.6z M182.4,90.3h1.9c0.5,0,0.9-0.1,1.1-0.3c0.2-0.2,0.3-0.4,0.3-0.7c0-0.6-0.5-1-1.5-1h-1.8V90.3z
				"/>
			<path class="st1" d="M192.5,85.9c0.4,0.6,0.7,1.3,0.7,2.2c0,0.9-0.2,1.6-0.7,2.2c-0.5,0.6-1.1,0.9-2,0.9s-1.5-0.4-2-1.2v3.3h-0.9
				v-8.2h0.9v1c0.4-0.8,1.1-1.1,2-1.1C191.4,84.9,192,85.2,192.5,85.9z M189,86.4c-0.3,0.4-0.4,1-0.4,1.6v0.1c0,0.7,0.2,1.2,0.5,1.7
				c0.3,0.4,0.7,0.6,1.3,0.6c0.6,0,1.1-0.2,1.5-0.7c0.3-0.4,0.4-1,0.4-1.7c0-0.7-0.1-1.3-0.4-1.7c-0.3-0.5-0.8-0.7-1.4-0.7
				C189.8,85.7,189.3,85.9,189,86.4z"/>
			<path class="st1" d="M198.9,85.6c0.3,0.4,0.5,0.9,0.5,1.6V91h-0.9v-1c-0.2,0.3-0.5,0.6-0.9,0.8c-0.4,0.2-0.9,0.4-1.5,0.4
				c-0.6,0-1.1-0.1-1.4-0.4c-0.4-0.3-0.6-0.7-0.6-1.2c0-0.7,0.3-1.2,0.8-1.5c0.5-0.3,1.2-0.5,2.1-0.5l1.4,0v-0.3
				c0-1-0.5-1.5-1.5-1.5c-0.4,0-0.8,0.1-1.1,0.3c-0.3,0.2-0.5,0.5-0.6,0.8l-0.9-0.1c0.1-0.6,0.4-1.1,0.9-1.4c0.4-0.3,1-0.4,1.7-0.4
				C197.8,84.9,198.5,85.1,198.9,85.6z M197.1,88.2c-1.3,0-2,0.5-2,1.3c0,0.3,0.1,0.5,0.3,0.7c0.2,0.2,0.5,0.3,0.9,0.3
				c0.6,0,1.1-0.2,1.5-0.6c0.4-0.4,0.6-0.8,0.6-1.2v-0.5L197.1,88.2z"/>
			<path class="st1" d="M201.7,85.1v5.2h3v-5.2h0.9v5.2h0.9v2.4h-0.9V91h-4.8v-5.9H201.7z"/>
			<path class="st1" d="M208.4,85.1v4.6l3.2-4.6h1V91h-0.9v-4.6l-3.2,4.6h-1v-5.9H208.4z"/>
			<path class="st1" d="M218.7,91h-0.9v-2.5h-1.6l-1.4,2.5h-1.1l1.5-2.6c-0.2,0-0.3-0.1-0.5-0.2c-0.5-0.3-0.7-0.7-0.7-1.4
				c0-0.6,0.2-1,0.6-1.3c0.4-0.3,0.9-0.4,1.7-0.4h2.4V91z M215,86.8c0,0.3,0.1,0.6,0.3,0.7s0.6,0.3,1,0.3h1.5v-2h-1.4
				C215.5,85.9,215,86.2,215,86.8z"/>
			<path class="st1" d="M226.9,85.1c0.6,0,1,0.1,1.3,0.3c0.3,0.2,0.5,0.6,0.5,1.1c0,0.7-0.4,1.1-1.1,1.4c0.8,0.3,1.3,0.7,1.3,1.4
				c0,0.6-0.2,1-0.5,1.3c-0.4,0.3-0.9,0.4-1.6,0.4H224v-5.9H226.9z M224.9,87.6h1.8c0.4,0,0.7-0.1,0.9-0.2c0.2-0.2,0.4-0.4,0.4-0.7
				c0-0.6-0.4-0.9-1.2-0.9h-1.9V87.6z M224.9,90.3h1.9c0.5,0,0.9-0.1,1.1-0.3c0.2-0.2,0.3-0.4,0.3-0.7c0-0.6-0.5-1-1.5-1h-1.8V90.3z
				"/>
			<path class="st1" d="M234.6,85.6c0.3,0.4,0.5,0.9,0.5,1.6V91h-0.9v-1c-0.2,0.3-0.5,0.6-0.9,0.8c-0.4,0.2-0.9,0.4-1.5,0.4
				c-0.6,0-1.1-0.1-1.4-0.4c-0.4-0.3-0.6-0.7-0.6-1.2c0-0.7,0.3-1.2,0.8-1.5c0.5-0.3,1.2-0.5,2.1-0.5l1.4,0v-0.3
				c0-1-0.5-1.5-1.5-1.5c-0.4,0-0.8,0.1-1.1,0.3c-0.3,0.2-0.5,0.5-0.6,0.8l-0.9-0.1c0.1-0.6,0.4-1.1,0.9-1.4c0.4-0.3,1-0.4,1.7-0.4
				C233.6,84.9,234.2,85.1,234.6,85.6z M232.9,88.2c-1.3,0-2,0.5-2,1.3c0,0.3,0.1,0.5,0.3,0.7c0.2,0.2,0.5,0.3,0.9,0.3
				c0.6,0,1.1-0.2,1.5-0.6c0.4-0.4,0.6-0.8,0.6-1.2v-0.5L232.9,88.2z"/>
			<path class="st1" d="M237.5,85.1v2.4h3.2v-2.4h0.9V91h-0.9v-2.7h-3.2V91h-0.9v-5.9H237.5z"/>
			<path class="st1" d="M243.9,85.1v2.4h3.2v-2.4h0.9V91h-0.9v-2.7h-3.2V91H243v-5.9H243.9z"/>
		</g>
	</g>
	<g>
		<g>
			<path class="st1" d="M58.9,72.6c0.1-0.2-4.5-2.5-5.9-3.3c-3.4-1.7-6.3-3-8.3-3.8c-3.1-1.3-5.1-2.2-8.1-3.2
				c-4.6-1.6-7.4-2.1-9.7-2.4c-2.5-0.3-3.7-0.2-4.2-0.1c-1.4,0.2-4.3,0.5-6.6,2.8c-0.5,0.5-2.5,2.6-2.4,5.5c0.1,3.1,2.4,5.1,3.5,6
				c1.2,1,2.5,1.7,5,2.5c4.5,1.5,8.3,1.9,10.1,2c6.3,0.6,9.5,0.9,12.6,0.9C62.2,80,82,76.9,90.3,75.6c1.3-0.2,8.7-1.4,12.8-2
				c0.5-0.1,2.4-0.4,5.1-0.8c1.3-0.2,2.1-0.3,2.5-0.4c1.9-0.3,15-2.4,18-2.1c0.1,0,0.8,0.1,0.8,0.1l0,0c0,0-1.1-0.2-1.8-0.3
				c-0.7-0.1-1.3-0.2-2.4-0.2c-2.4-0.1-4.6,0-5.4,0.1c-1.3,0.1-2.3,0.1-4.2,0.3c-1.9,0.1-4.9,0.4-8.5,0.7c-2.1,0.2-3.3,0.3-5.1,0.5
				c-6.5,0.7-7.1,0.7-14.9,1.4c-5.1,0.5-5.7,0.6-10,1c-4.5,0.4-4.6,0.4-6.8,0.7c-3.1,0.3-3.1,0.4-5.5,0.6c-1.9,0.2-3.5,0.3-4.5,0.4
				c-1.6,0.1-3.3,0.3-5.2,0.4c-2.7,0.2-4.8,0.3-7.6,0.3c-2.2,0-3.7-0.1-6.7-0.2c-2.5-0.1-4.3-0.2-6.9-0.5c-3.2-0.3-5-0.7-5.8-0.8
				c-1.9-0.4-2.8-0.6-3.8-1c-2.6-1-6.8-3.4-6.8-6.3c0-0.7,0.2-1.2,0.4-1.5c0,0,1.1-2.2,5.1-2.6c0.7-0.1,1.5-0.1,1.5-0.1
				c1.6,0,3.6,0.1,6.1,0.5c1.2,0.2,2.9,0.5,5.5,1.1c4,1,7,2.1,8.9,2.8C54.4,71,58.8,72.9,58.9,72.6z"/>
			<g>
				<path class="st0" d="M107,97.7c5.1-3.3,8.5-6.5,10-8.1c-7.9,5.5-22.5,13.4-42.5,13.5c-19.6,0.1-34-7.4-42-12.8
					c1.7,1.6,5.2,4.8,10.3,8l-1,10l5.9-7.3l0,0c7,3.5,16,6.4,26.9,6.4c11.2,0,20.4-3.2,27.5-6.9l6,7.1L107,97.7z"/>
				<path class="st0" d="M56.5,73.9c0-0.3-2.3-0.7-8.1-2.7c-1.9-0.7-2.2-0.8-3.9-1.4c-2.1-0.8-6-2.1-9.3-2.9
					c-5.7-1.3-14.2-1.9-15.1,0.6c-0.1,0.3-0.1,0.6-0.1,0.7c0.3,2.3,5,3.4,7.7,4.1c0.6,0.1,2.1,0.5,5.4,0.9c4.3,0.5,7.2,0.6,7.2,0.6
					C53.4,74.5,56.5,74.3,56.5,73.9z"/>
				<path class="st0" d="M125.8,82.2c0,0.1,1.5-0.6,2.7-1.1c0,0,4.3-2,7.1-4c0.2-0.1,0.5-0.4,1.1-1.1c0.2-0.2,0.4-0.4,0.5-0.7
					c0-0.1,0.2-0.5,0-0.8c-0.1-0.2-0.2-0.3-0.5-0.5c-0.4-0.2-0.7-0.4-0.8-0.4c-0.7-0.2-1.4-0.3-1.5-0.3c-1.5-0.1-2.5-0.1-2.5-0.1
					c-1.6,0-3.8,0-6.5,0.2c-1.7,0.1-2.9,0.3-4.9,0.6c-2.7,0.4-4.8,0.8-6.7,1.1c-2,0.4-3.7,0.7-4.2,0.8c-2,0.4-2.4,0.5-4.4,0.9
					c-1.5,0.3-2.5,0.5-4.1,0.8c-2.2,0.4-3.3,0.6-4.3,0.7c-1.8,0.3-1.9,0.2-3.7,0.5c-1.7,0.3-1.7,0.3-3.8,0.6
					c-1.1,0.2-2.1,0.3-4.1,0.6c-2.2,0.3-3.3,0.5-4.3,0.6c-1.7,0.2-3,0.3-5.3,0.6c-1.3,0.1-2.8,0.3-4.6,0.4c-0.9,0.1-3.7,0.3-7.5,0.6
					c-3,0.2-5.9,0.4-9.6,0.4c-2.4,0.1-5,0.1-8.5,0c-1.3,0-4.7-0.2-9.1-0.6c-3.1-0.3-5.3-0.5-8.2-1.1c0,0-4-0.8-6.9-1.9
					c-0.7-0.3-2.9-1.2-3.3-1.4c0,0-0.1-0.1-0.1,0c0,0,0.5,0.6,1.1,1.1c0.2,0.2,0.6,0.5,1,0.8c0.3,0.3,0.7,0.5,1.6,1
					c0.8,0.4,1.2,0.7,1.9,1c1.3,0.6,2.3,1.1,3.2,1.4c0.6,0.2,1.1,0.4,1.7,0.7c1.4,0.5,2.6,0.8,3.9,1.1c1.4,0.4,2.6,0.6,3,0.7
					c0.4,0.1,1.6,0.3,3.9,0.6c2.7,0.4,4.8,0.6,5.4,0.6c1.7,0.2,3.8,0.4,6.7,0.4c0.7,0,3,0.1,7.3-0.1c1.7-0.1,6.9-0.3,14-1.1
					c2.9-0.3,5.1-0.6,7.9-1c3.4-0.5,5.4-0.7,8.2-1.2c2.1-0.4,3.8-0.7,7.3-1.4c2-0.4,4.1-0.9,6.4-1.4c2.7-0.6,4.1-0.9,5.2-1.2
					c1.8-0.5,2.3-0.6,4.7-1.2c0.8-0.2,1.9-0.5,3.3-0.8c0.4-0.1,1.2-0.3,2.7-0.6c1.1-0.2,1.5-0.3,2.3-0.5c1.5-0.3,1.4-0.3,2.1-0.5
					c1.7-0.4,2.7-0.6,4-0.8c0.9-0.2,1.7-0.3,1.9-0.3c0,0,2-0.3,4-0.4c0.2,0,0.5,0,1.2,0c0.1,0,0.4,0,0.8,0.1
					c0.4,0.1,0.6,0.2,0.7,0.2c0.1,0.1,0.3,0.2,0.4,0.4c0,0.1,0.1,0.3-0.1,0.7c-0.3,0.7-1,1.1-2.8,2.3c-0.1,0.1-0.2,0.1-0.3,0.2
					c-0.3,0.2-0.7,0.4-1.4,0.8c-0.4,0.2-1.1,0.6-1.9,1C128.8,80.3,125.8,82,125.8,82.2z"/>
			</g>
		</g>
		<g>
			<g>
				<path id="XMLID_18_" class="st1" d="M92.8,48.8c-8.1,4.5-17,6.8-25.9,6.8c-6.8,0-13.4-1.4-19.4-4.1c0.2,0.1,0.5,0.2,0.7,0.3
					c0.8,0.4,1.6,0.8,2.5,1.1c5.7,2.3,11.8,3.5,18.1,3.5c8.5,0,17-2.2,24.6-6.3L92.8,48.8z"/>
				<path id="XMLID_16_" class="st1" d="M94.9,53.5c-0.9,0.5-1.8,0.9-2.6,1.3c-6.8,3.1-14.1,4.7-21.5,4.7c-7.4,0-14.9-1.7-21.5-4.8
					c-0.6-0.3-1.1-0.6-1.7-0.8c0,0,0,0-0.1,0c7.6,4.4,16.2,6.7,25.1,6.7c8,0,15.9-1.9,22.9-5.5L94.9,53.5z"/>
				<path id="XMLID_14_" class="st1" d="M47.7,56.2c0.2,0.1,0.4,0.3,0.6,0.4c8.6,5.4,18.3,8.2,28.1,8.2c6.3,0,12.5-1.2,18.2-3.5
					c0.6-0.2,1.2-0.5,1.7-0.7c0.3-0.1,0.6-0.3,0.8-0.4c0.2-0.1,0.3-0.2,0.5-0.3l-0.7-1.6c-0.4,0.2-0.8,0.4-1.2,0.6
					c-0.3,0.1-0.6,0.3-0.9,0.4c-6.4,2.9-13.3,4.3-20.5,4.3c-9.3,0-18.4-2.5-26.5-7.2C47.9,56.4,47.8,56.3,47.7,56.2z"/>
			</g>
			<g>
				<g id="XMLID_19_">
					<path id="XMLID_21_" class="st0" d="M99.5,45.2L97.8,46l6.6,14.8l1.7-0.8l0,0c-1.5-3.4,0.2-7.4,3.8-8.6
						c4.1-1.3,8.6-1.6,11.8-4.8c0.3-0.3,1.1-1.3,0.6-2.6c-0.6-1.3-1.9-1.4-2.3-1.3c-4.5,0.3-7.8,3.5-11.5,5.6
						c-3.2,1.9-7.4,0.5-9-2.9L99.5,45.2z M118.9,43.9c0.7-0.3,1.6,0,1.9,0.7c0.3,0.7,0,1.6-0.7,1.9c-0.7,0.3-1.6,0-1.9-0.7
						C117.9,45,118.2,44.2,118.9,43.9z"/>
					
						<rect id="XMLID_20_" x="97.1" y="46.3" transform="matrix(-0.9132 0.4076 -0.4076 -0.9132 211.2907 63.7204)" class="st0" width="3.4" height="16.2"/>
				</g>
				<g>
					<path id="XMLID_17_" class="st0" d="M93.9,51.1c-7.8,4.2-16.4,6.4-25,6.4c-6.4,0-12.7-1.2-18.5-3.6c-0.9-0.3-1.7-0.7-2.5-1.1
						c-0.1,0-0.1-0.1-0.2-0.1c0.2,0.1,0.3,0.2,0.5,0.2c0.5,0.3,1.1,0.6,1.7,0.8c6.5,3.1,13.8,4.7,21.1,4.7c7.3,0,14.4-1.6,21.1-4.6
						c0.9-0.4,1.8-0.8,2.6-1.3L93.9,51.1z"/>
					<path id="XMLID_15_" class="st0" d="M47.8,55.1c0.2,0.2,0.5,0.3,0.7,0.4c7.9,4.6,17,7.1,26,7.1c7,0,13.7-1.4,20.1-4.2
						c0.3-0.1,0.6-0.3,0.9-0.4c0.4-0.2,0.8-0.4,1.2-0.6L96,55.9c-7.2,3.7-15.2,5.6-23.3,5.6C63.8,61.5,55.4,59.3,47.8,55.1z"/>
					<path id="XMLID_13_" class="st0" d="M47.8,57.5c9.2,6.2,19.8,9.6,30.5,9.6c7.2,0,14.3-1.6,20.6-4.6l-0.7-1.6
						C98,61,97.9,61,97.7,61.1c-0.3,0.1-0.6,0.3-0.9,0.4c-0.6,0.3-1.2,0.5-1.8,0.7c-5.9,2.4-12.1,3.6-18.6,3.6
						C66.4,65.8,56.6,62.9,47.8,57.5z"/>
				</g>
			</g>
		</g>
	</g>
</g>
</svg>
