<svg xmlns="http://www.w3.org/2000/svg" width="39.003" height="39.003" viewBox="0 0 39.003 39.003"><defs><style>.a{fill:none;stroke:#30bfce;}</style></defs><g transform="translate(0.5 0.5)"><path class="a" d="M4.319,8.637H33.685a4.319,4.319,0,0,0,0-8.637H4.319a4.319,4.319,0,0,0,0,8.637Zm0-6.91H33.685a2.591,2.591,0,1,1,0,5.182H4.319a2.591,2.591,0,0,1,0-5.182Z"/><path class="a" d="M33.685,181.333H4.319a4.319,4.319,0,0,0,0,8.637H33.685a4.319,4.319,0,0,0,0-8.637Zm0,6.91H4.319a2.591,2.591,0,1,1,0-5.182H33.685a2.591,2.591,0,1,1,0,5.182Z" transform="translate(0 -166.65)"/><path class="a" d="M33.685,362.667H4.319a4.319,4.319,0,1,0,0,8.637H33.685a4.319,4.319,0,1,0,0-8.637Zm0,6.91H4.319a2.591,2.591,0,0,1,0-5.182H33.685a2.591,2.591,0,0,1,0,5.182Z" transform="translate(0 -333.301)"/></g></svg>