<?xml version="1.0" encoding="utf-8"?>
<!-- Generator: Adobe Illustrator 24.0.3, SVG Export Plug-In . SVG Version: 6.00 Build 0)  -->
<svg version="1.1" id="Warstwa_1" xmlns="http://www.w3.org/2000/svg" xmlns:xlink="http://www.w3.org/1999/xlink" x="0px" y="0px"
	 viewBox="0 0 42.2 42.2" style="enable-background:new 0 0 42.2 42.2;" xml:space="preserve">
<style type="text/css">
	.st0{fill:none;stroke:#3DBBCB;stroke-miterlimit:10;}
</style>
<g>
	<path class="st0" d="M35.2,4H6.6C3.4,4,0.9,6.6,0.9,9.7V29c0,3.1,2.6,5.7,5.7,5.7h2.2v5c0,0.5,0.3,0.9,0.7,1.1
		c0.2,0.1,0.4,0.1,0.5,0.1c0.3,0,0.5-0.1,0.7-0.3l7.8-6h16.6c3.1,0,5.7-2.6,5.7-5.7V9.7C40.9,6.6,38.3,4,35.2,4z M38.4,29
		c0,1.8-1.5,3.3-3.3,3.3h-17c-0.3,0-0.5,0.1-0.7,0.3l-6.2,4.7v-3.8c0-0.7-0.6-1.2-1.2-1.2H6.6c-1.8,0-3.3-1.5-3.3-3.3V9.7
		c0-1.8,1.5-3.3,3.3-3.3h28.6c1.8,0,3.3,1.5,3.3,3.3L38.4,29L38.4,29z"/>
</g>
</svg>
